<svg xmlns="http://www.w3.org/2000/svg" width="1200" height="800" viewBox="0 0 1200 800">
  <!-- Background gradient -->
  <defs>
    <linearGradient id="bg-gradient" x1="0%" y1="0%" x2="100%" y2="100%">
      <stop offset="0%" stop-color="#4267B2" /> <!-- Facebook blue -->
      <stop offset="50%" stop-color="#1DA1F2" /> <!-- Twitter blue -->
      <stop offset="100%" stop-color="#E1306C" /> <!-- Instagram pink -->
    </linearGradient>
    
    <!-- Pattern for background -->
    <pattern id="pattern" x="0" y="0" width="60" height="60" patternUnits="userSpaceOnUse">
      <circle cx="30" cy="30" r="2" fill="#ffffff" fill-opacity="0.1" />
    </pattern>
  </defs>
  
  <!-- Main background -->
  <rect width="1200" height="800" fill="url(#bg-gradient)" />
  
  <!-- Pattern overlay -->
  <rect width="1200" height="800" fill="url(#pattern)" />
  
  <!-- Social media icons -->
  <!-- Facebook icon -->
  <g transform="translate(200, 400)" opacity="0.2">
    <path d="M90,0 C40.29,0 0,40.29 0,90 C0,134.85 32.85,172.05 75.6,178.95 L75.6,116.1 L52.8,116.1 L52.8,90 L75.6,90 L75.6,70.2 C75.6,47.61 88.83,35.1 109.35,35.1 C119.25,35.1 129.6,36.9 129.6,36.9 L129.6,58.5 L118.35,58.5 C107.1,58.5 103.5,65.31 103.5,72.45 L103.5,90 L128.7,90 L124.65,116.1 L103.5,116.1 L103.5,178.95 C146.25,172.05 179.1,134.85 179.1,90 C179.1,40.29 138.81,0 90,0 Z" fill="#ffffff"/>
  </g>
  
  <!-- Twitter icon -->
  <g transform="translate(600, 300)" opacity="0.2">
    <path d="M180,34.95 C173.25,38.25 166.05,40.5 158.4,41.4 C166.2,36.6 172.05,28.95 174.75,19.8 C167.55,24.3 159.45,27.45 150.75,29.25 C143.7,21.6 133.5,16.8 122.25,16.8 C102.3,16.8 86.25,32.85 86.25,52.8 C86.25,55.95 86.55,59.1 87.3,62.1 C57.15,60.45 30.3,46.2 12.45,24.45 C9.3,30.45 7.35,37.5 7.35,44.85 C7.35,58.8 14.4,71.1 25.05,78.3 C18.75,78 12.75,76.2 7.5,73.2 L7.5,73.65 C7.5,91.05 19.8,105.6 36.15,109.35 C33,110.25 29.7,110.7 26.25,110.7 C23.85,110.7 21.6,110.4 19.35,110.1 C24,124.35 37.05,134.7 52.65,135 C40.5,144.6 25.2,150.3 8.4,150.3 C5.55,150.3 2.7,150.15 0,149.85 C15.75,159.9 34.5,165.75 54.6,165.75 C120,165.75 155.85,110.85 155.85,63.45 C155.85,61.8 155.85,60 155.7,58.35 C162.9,52.95 169.2,46.05 174,38.25 L180,34.95 Z" fill="#ffffff"/>
  </g>
  
  <!-- Instagram icon -->
  <g transform="translate(900, 500)" opacity="0.2">
    <path d="M90,16.2 C114,16.2 116.7,16.35 126.15,16.8 C135.15,17.25 140.25,19.05 143.55,20.55 C147.9,22.5 151.05,24.9 154.35,28.2 C157.65,31.5 160.05,34.65 162,39 C163.5,42.3 165.3,47.4 165.75,56.4 C166.2,65.85 166.35,68.55 166.35,92.55 C166.35,116.55 166.2,119.25 165.75,128.7 C165.3,137.7 163.5,142.8 162,146.1 C160.05,150.45 157.65,153.6 154.35,156.9 C151.05,160.2 147.9,162.6 143.55,164.55 C140.25,166.05 135.15,167.85 126.15,168.3 C116.7,168.75 114,168.9 90,168.9 C66,168.9 63.3,168.75 53.85,168.3 C44.85,167.85 39.75,166.05 36.45,164.55 C32.1,162.6 28.95,160.2 25.65,156.9 C22.35,153.6 19.95,150.45 18,146.1 C16.5,142.8 14.7,137.7 14.25,128.7 C13.8,119.25 13.65,116.55 13.65,92.55 C13.65,68.55 13.8,65.85 14.25,56.4 C14.7,47.4 16.5,42.3 18,39 C19.95,34.65 22.35,31.5 25.65,28.2 C28.95,24.9 32.1,22.5 36.45,20.55 C39.75,19.05 44.85,17.25 53.85,16.8 C63.3,16.35 66,16.2 90,16.2 M90,0 C65.55,0 62.55,0.15 52.95,0.6 C43.35,1.05 36.75,3 30.9,5.7 C24.9,8.4 19.8,12 14.7,17.1 C9.6,22.2 6,27.3 3.3,33.3 C0.6,39.15 -1.35,45.75 -1.8,55.35 C-2.25,64.95 -2.4,67.95 -2.4,92.4 C-2.4,116.85 -2.25,119.85 -1.8,129.45 C-1.35,139.05 0.6,145.65 3.3,151.5 C6,157.5 9.6,162.6 14.7,167.7 C19.8,172.8 24.9,176.4 30.9,179.1 C36.75,181.8 43.35,183.75 52.95,184.2 C62.55,184.65 65.55,184.8 90,184.8 C114.45,184.8 117.45,184.65 127.05,184.2 C136.65,183.75 143.25,181.8 149.1,179.1 C155.1,176.4 160.2,172.8 165.3,167.7 C170.4,162.6 174,157.5 176.7,151.5 C179.4,145.65 181.35,139.05 181.8,129.45 C182.25,119.85 182.4,116.85 182.4,92.4 C182.4,67.95 182.25,64.95 181.8,55.35 C181.35,45.75 179.4,39.15 176.7,33.3 C174,27.3 170.4,22.2 165.3,17.1 C160.2,12 155.1,8.4 149.1,5.7 C143.25,3 136.65,1.05 127.05,0.6 C117.45,0.15 114.45,0 90,0 L90,0 Z" fill="#ffffff"/>
    <path d="M90,45 C64.35,45 43.5,65.85 43.5,91.5 C43.5,117.15 64.35,138 90,138 C115.65,138 136.5,117.15 136.5,91.5 C136.5,65.85 115.65,45 90,45 Z M90,121.5 C73.5,121.5 60,108 60,91.5 C60,75 73.5,61.5 90,61.5 C106.5,61.5 120,75 120,91.5 C120,108 106.5,121.5 90,121.5 Z" fill="#ffffff"/>
    <circle cx="137.25" cy="44.25" r="10.5" fill="#ffffff"/>
  </g>
  
  <!-- Abstract network connections -->
  <g opacity="0.15">
    <!-- Connection lines -->
    <line x1="200" y1="400" x2="600" y2="300" stroke="#ffffff" stroke-width="2" />
    <line x1="600" y1="300" x2="900" y2="500" stroke="#ffffff" stroke-width="2" />
    <line x1="900" y1="500" x2="200" y2="400" stroke="#ffffff" stroke-width="2" />
    
    <!-- Additional connection points -->
    <circle cx="400" cy="200" r="5" fill="#ffffff" />
    <circle cx="800" cy="200" r="5" fill="#ffffff" />
    <circle cx="300" cy="600" r="5" fill="#ffffff" />
    <circle cx="700" cy="600" r="5" fill="#ffffff" />
    <circle cx="1000" cy="300" r="5" fill="#ffffff" />
    
    <!-- Additional connection lines -->
    <line x1="200" y1="400" x2="400" y2="200" stroke="#ffffff" stroke-width="1" />
    <line x1="600" y1="300" x2="400" y2="200" stroke="#ffffff" stroke-width="1" />
    <line x1="600" y1="300" x2="800" y2="200" stroke="#ffffff" stroke-width="1" />
    <line x1="900" y1="500" x2="800" y2="200" stroke="#ffffff" stroke-width="1" />
    <line x1="900" y1="500" x2="700" y2="600" stroke="#ffffff" stroke-width="1" />
    <line x1="200" y1="400" x2="300" y2="600" stroke="#ffffff" stroke-width="1" />
    <line x1="300" y1="600" x2="700" y2="600" stroke="#ffffff" stroke-width="1" />
    <line x1="900" y1="500" x2="1000" y2="300" stroke="#ffffff" stroke-width="1" />
    <line x1="600" y1="300" x2="1000" y2="300" stroke="#ffffff" stroke-width="1" />
  </g>
  
  <!-- Security-related symbols -->
  <g transform="translate(400, 400)" opacity="0.2">
    <!-- Lock icon -->
    <path d="M75,40 L75,30 C75,13.43 61.57,0 45,0 C28.43,0 15,13.43 15,30 L15,40 L0,40 L0,110 L90,110 L90,40 L75,40 Z M30,30 C30,21.72 36.72,15 45,15 C53.28,15 60,21.72 60,30 L60,40 L30,40 L30,30 Z" fill="#ffffff"/>
  </g>
  
  <g transform="translate(700, 400)" opacity="0.2">
    <!-- Shield icon -->
    <path d="M50,0 L0,20 L0,50 C0,77.5 21.25,103.75 50,110 C78.75,103.75 100,77.5 100,50 L100,20 L50,0 Z M50,50 L80,50 C77.5,70 66.25,88.75 50,95 L50,50 L20,50 L20,32.5 L50,20 L50,50 Z" fill="#ffffff"/>
  </g>
</svg>